<?xml version="1.0" encoding="UTF-8"?>
<svg xmlns="http://www.w3.org/2000/svg" xmlns:xlink="http://www.w3.org/1999/xlink" width="164pt" height="42.248459pt" viewBox="0 0 164 42.248459" version="1.1">
<defs>
<clipPath id="clip1">
  <path d="M 0.496094 0 L 163.878906 0 L 163.878906 42.25 L 0.496094 42.25 Z M 0.496094 0 "/>
</clipPath>
<clipPath id="clip2">
  <rect width="164" height="43"/>
</clipPath>
<g id="surface6" clip-path="url(#clip2)">
<path style="fill:none;stroke-width:1.25;stroke-linecap:butt;stroke-linejoin:miter;stroke:rgb(65.098572%,0%,9.799194%);stroke-opacity:1;stroke-miterlimit:4;" d="M 0.00160716 0.00236948 C -1.190466 0.00236948 -2.159025 -0.952027 -2.159025 -2.128808 C -2.159025 -3.314854 -1.190466 -4.269251 0.00160716 -4.269251 C 1.184367 -4.269251 2.152927 -3.314854 2.152927 -2.128808 C 2.152927 -0.952027 1.184367 0.00236948 0.00160716 0.00236948 Z M 0.00160716 0.00236948 " transform="matrix(0.419437,0,0,0.421569,82.389951,4.206032)"/>
<path style="fill:none;stroke-width:1.928;stroke-linecap:butt;stroke-linejoin:miter;stroke:rgb(65.098572%,0%,9.799194%);stroke-opacity:1;stroke-miterlimit:4;" d="M 0.00404409 0.000325872 L 0.00404409 -29.548911 L -24.889796 -16.530197 L -24.889796 13.417477 L 12.14829 32.811191 L 49.177062 13.417477 L 49.177062 -16.530197 L 24.283222 -29.548911 L 24.283222 0.000325872 L 12.14829 6.440188 Z M 0.00404409 0.000325872 " transform="matrix(0.419437,0,0,0.421569,77.260023,28.261581)"/>
<path style="fill:none;stroke-width:1.928;stroke-linecap:butt;stroke-linejoin:miter;stroke:rgb(65.098572%,0%,9.799194%);stroke-opacity:1;stroke-miterlimit:4;" d="M 0.000803582 0.00388547 L 0.000803582 38.19829 L 24.894644 25.105448 L 24.894644 0.522781 " transform="matrix(0.419437,0,0,0.421569,66.819975,3.537425)"/>
<path style="fill:none;stroke-width:1.928;stroke-linecap:butt;stroke-linejoin:miter;stroke:rgb(65.098572%,0%,9.799194%);stroke-opacity:1;stroke-miterlimit:4;" d="M -0.000434985 0.00368081 L 25.107606 0.00368081 L 10.337075 -7.946537 L -34.57987 -7.946537 L -49.303836 0.00368081 L -24.195795 0.00368081 " transform="matrix(0.419437,0,0,0.421569,87.39862,3.756261)"/>
<path style="fill:none;stroke-width:1.928;stroke-linecap:butt;stroke-linejoin:miter;stroke:rgb(65.098572%,0%,9.799194%);stroke-opacity:1;stroke-miterlimit:4;" d="M 0.00277546 0.00388547 L 0.00277546 38.19829 L -24.900378 25.17031 L -24.900378 0.522781 " transform="matrix(0.419437,0,0,0.421569,97.889461,3.537425)"/>
<path style="fill:none;stroke-width:1.928;stroke-linecap:butt;stroke-linejoin:miter;stroke:rgb(65.098572%,0%,9.799194%);stroke-opacity:1;stroke-miterlimit:4;" d="M -0.00375591 0.00360669 L -0.00375591 24.45655 L 6.152184 21.259784 L 6.152184 9.88115 C 6.152184 6.60099 8.834349 3.960184 12.14049 3.960184 C 15.437317 3.960184 18.119482 6.610256 18.119482 9.88115 L 18.100855 21.333912 L 24.275422 24.558476 L 24.284735 0.0221387 L 12.14049 -6.325063 Z M -0.00375591 0.00360669 " transform="matrix(0.419437,0,0,0.421569,77.263294,3.799261)"/>
<path style=" stroke:none;fill-rule:nonzero;fill:rgb(0%,0%,0%);fill-opacity:1;" d="M 0.101562 22.507812 C 0.957031 22.613281 1.652344 22.296875 2.425781 22.613281 C 2.15625 22.886719 1.484375 22.800781 1.609375 23.414062 L 1.652344 29.757812 C 1.777344 30.265625 2.132812 30.75 2.617188 31.023438 C 3.457031 31.359375 4.460938 31.464844 5.257812 30.9375 C 5.90625 30.519531 6.222656 29.863281 6.203125 29.125 L 6.203125 23.097656 C 6.222656 22.527344 5.132812 23.035156 5.59375 22.464844 C 6.222656 22.507812 6.914062 22.382812 7.480469 22.570312 C 7.335938 22.886719 6.640625 22.675781 6.683594 23.222656 L 6.621094 29.464844 C 6.496094 30.136719 6.242188 30.855469 5.550781 31.210938 C 4.378906 31.867188 2.59375 31.886719 1.527344 31.023438 C 0.917969 30.519531 0.769531 29.820312 0.707031 29.082031 L 0.707031 23.140625 C 0.730469 22.59375 -0.320312 23.011719 0.101562 22.507812 "/>
<path style=" stroke:none;fill-rule:nonzero;fill:rgb(0%,0%,0%);fill-opacity:1;" d="M 7.902344 22.464844 C 8.320312 22.382812 8.800781 22.445312 9.242188 22.421875 C 10.984375 24.722656 12.492188 27.101562 14.214844 29.421875 L 14.296875 29.273438 L 14.296875 22.949219 C 14.214844 22.488281 13.480469 22.886719 13.585938 22.421875 C 14.214844 22.359375 14.949219 22.316406 15.535156 22.464844 C 15.429688 22.800781 14.757812 22.550781 14.820312 23.097656 L 14.714844 31.464844 C 14.085938 31.867188 14.359375 30.917969 14.023438 30.707031 C 12.453125 28.492188 10.960938 26.21875 9.324219 24.089844 C 9.179688 26.34375 9.179688 28.726562 9.324219 31.023438 C 9.472656 31.382812 9.976562 31.105469 9.996094 31.464844 C 9.367188 31.527344 8.675781 31.527344 8.046875 31.464844 C 8.109375 31.128906 8.761719 31.359375 8.800781 30.894531 L 8.800781 23.285156 C 8.589844 22.949219 8.257812 22.71875 7.902344 22.613281 L 7.902344 22.464844 "/>
<path style=" stroke:none;fill-rule:nonzero;fill:rgb(0%,0%,0%);fill-opacity:1;" d="M 17.042969 30.9375 L 17.085938 23.097656 C 17.148438 22.507812 15.722656 22.863281 16.5625 22.421875 C 18.070312 22.445312 19.433594 22.382812 20.925781 22.464844 C 20.902344 22.78125 20.398438 22.613281 20.316406 22.949219 C 20.925781 25.394531 21.867188 27.734375 22.730469 30.074219 L 22.917969 29.886719 L 25.222656 23.097656 C 25.203125 22.949219 25.117188 22.800781 24.992188 22.699219 C 24.804688 22.738281 24.65625 22.675781 24.53125 22.570312 L 24.574219 22.421875 L 31.433594 22.421875 C 31.535156 22.824219 31.914062 23.222656 31.726562 23.601562 C 31.074219 22.402344 29.542969 22.757812 28.347656 22.757812 L 28.078125 23.097656 L 28.035156 25.941406 C 28.535156 26.363281 29.3125 25.921875 29.964844 26.132812 C 30.046875 26.175781 30.109375 26.300781 30.003906 26.363281 C 29.417969 26.640625 28.496094 26.195312 28.078125 26.746094 L 28.035156 30.75 C 28.054688 30.960938 28.304688 31.105469 28.496094 31.128906 C 29.691406 30.960938 31.367188 31.632812 31.914062 30.179688 L 32.144531 30.179688 C 32.039062 30.644531 31.914062 31.085938 31.621094 31.464844 C 29.878906 31.445312 28.117188 31.507812 26.417969 31.421875 C 26.4375 30.9375 27.214844 31.402344 27.171875 30.789062 L 27.132812 22.84375 C 26.835938 22.65625 26.4375 22.613281 26.085938 22.699219 L 25.664062 23.179688 L 22.769531 31.464844 C 22.6875 31.570312 22.582031 31.632812 22.433594 31.613281 L 22.203125 31.277344 L 19.375 23.097656 C 19.121094 22.699219 18.574219 22.65625 18.132812 22.757812 L 17.945312 22.992188 L 17.945312 30.9375 C 18.011719 31.253906 18.40625 31.210938 18.660156 31.277344 L 18.660156 31.464844 C 17.882812 31.507812 16.917969 31.613281 16.246094 31.359375 C 16.457031 31.085938 16.941406 31.359375 17.042969 30.9375 "/>
<path style=" stroke:none;fill-rule:nonzero;fill:rgb(0%,0%,0%);fill-opacity:1;" d="M 33.046875 30.894531 L 33.089844 23.601562 C 33.109375 23.203125 32.519531 23.476562 32.5625 23.097656 C 34.011719 22.234375 35.980469 21.960938 37.492188 22.84375 C 38.164062 23.433594 38.394531 24.277344 38.203125 25.183594 C 38.058594 25.773438 37.617188 26.429688 37.011719 26.660156 L 35.875 26.996094 L 38.625 30.894531 C 38.835938 31.277344 39.335938 31.085938 39.527344 31.421875 C 39.066406 31.570312 38.457031 31.507812 37.972656 31.464844 C 36.882812 29.886719 35.625 28.410156 34.746094 26.746094 C 35.710938 26.660156 36.738281 26.46875 37.21875 25.519531 C 37.449219 24.867188 37.410156 24.003906 37.074219 23.414062 C 36.609375 22.863281 36.023438 22.59375 35.3125 22.65625 C 34.933594 22.699219 34.535156 22.738281 34.21875 22.992188 L 33.988281 23.414062 L 33.90625 30.75 C 33.925781 30.980469 34.09375 31.171875 34.324219 31.210938 C 34.492188 31.191406 34.597656 31.277344 34.746094 31.316406 L 34.746094 31.464844 C 33.949219 31.507812 33.046875 31.570312 32.292969 31.421875 C 32.398438 31.085938 32.984375 31.316406 33.046875 30.894531 "/>
<path style=" stroke:none;fill-rule:nonzero;fill:rgb(0%,0%,0%);fill-opacity:1;" d="M 39.527344 29.695312 C 40.007812 30.328125 40.617188 31 41.414062 31.171875 C 42.105469 31.316406 42.796875 31.171875 43.320312 30.75 C 43.761719 30.285156 43.949219 29.714844 43.886719 29.042969 C 43.238281 27.039062 40.871094 26.765625 39.863281 25.039062 C 39.609375 24.363281 39.695312 23.496094 40.136719 22.949219 C 40.996094 21.9375 42.484375 22.277344 43.59375 22.464844 C 43.785156 22.464844 43.910156 22.171875 44.078125 22.277344 C 44.160156 22.84375 44.515625 23.414062 44.308594 23.984375 C 43.828125 23.476562 43.363281 22.824219 42.652344 22.652344 C 42.0625 22.570312 41.371094 22.546875 40.953125 23.035156 C 40.492188 23.390625 40.472656 23.984375 40.574219 24.511719 C 41.730469 26.386719 45.441406 26.957031 44.644531 29.84375 C 44.414062 30.707031 43.574219 31.402344 42.691406 31.550781 C 41.8125 31.761719 41.035156 31.402344 40.199219 31.316406 C 40.007812 31.382812 40.007812 31.761719 39.757812 31.550781 C 39.632812 30.960938 39.441406 30.414062 39.378906 29.800781 L 39.527344 29.695312 "/>
<path style=" stroke:none;fill-rule:nonzero;fill:rgb(0%,0%,0%);fill-opacity:1;" d="M 45.777344 30.789062 L 45.777344 22.84375 C 45.671875 22.488281 44.769531 22.824219 45.207031 22.382812 C 45.941406 22.339844 46.90625 22.234375 47.472656 22.464844 C 47.285156 22.71875 46.738281 22.527344 46.675781 22.992188 C 46.613281 25.5 46.613281 28.535156 46.675781 30.980469 C 46.84375 31.210938 47.160156 31.148438 47.390625 31.210938 C 47.433594 31.507812 47.097656 31.445312 46.90625 31.464844 C 46.277344 31.421875 45.585938 31.550781 45.019531 31.359375 C 45.125 31.023438 45.734375 31.277344 45.777344 30.789062 "/>
<path style=" stroke:none;fill-rule:nonzero;fill:rgb(0%,0%,0%);fill-opacity:1;" d="M 48.1875 22.316406 L 54.207031 22.421875 C 54.332031 22.886719 54.644531 23.328125 54.585938 23.792969 C 54.226562 23.730469 54.207031 23.285156 53.871094 23.097656 C 53.410156 22.527344 52.613281 22.757812 51.921875 22.695312 L 51.542969 23.097656 C 51.542969 25.710938 51.375 28.410156 51.5 30.980469 C 51.667969 31.277344 52.382812 30.980469 52.171875 31.421875 C 51.351562 31.402344 50.535156 31.445312 49.761719 31.359375 C 49.84375 30.9375 50.703125 31.277344 50.597656 30.601562 L 50.660156 22.992188 C 50.242188 22.546875 49.425781 22.613281 48.859375 22.757812 C 48.332031 22.824219 48.082031 23.390625 47.769531 23.75 L 47.578125 23.667969 C 47.703125 23.179688 47.851562 22.675781 48.1875 22.316406 "/>
<path style=" stroke:none;fill-rule:nonzero;fill:rgb(0%,0%,0%);fill-opacity:1;" d="M 53.011719 31.171875 L 53.449219 30.75 C 54.394531 27.945312 55.339844 25.144531 56.28125 22.316406 C 56.597656 22.296875 56.578125 22.675781 56.699219 22.84375 L 59.132812 30.9375 C 59.28125 31.316406 59.785156 31.148438 59.828125 31.464844 C 59.113281 31.527344 58.191406 31.527344 57.414062 31.464844 L 57.414062 31.277344 C 57.667969 31.171875 58.023438 31.296875 58.128906 30.980469 C 58.085938 30.054688 57.707031 29.253906 57.414062 28.410156 L 57.140625 28.21875 L 54.8125 28.21875 C 54.207031 29.019531 54.078125 30.03125 53.828125 30.980469 C 53.914062 31.234375 54.289062 31.148438 54.351562 31.359375 L 54.164062 31.507812 L 52.695312 31.421875 C 52.613281 31.191406 52.90625 31.253906 53.011719 31.171875 "/>
<path style=" stroke:none;fill-rule:nonzero;fill:rgb(0%,0%,0%);fill-opacity:1;" d="M 55.109375 20.988281 C 55.359375 21.011719 55.714844 21.054688 55.757812 21.371094 C 55.820312 21.707031 55.714844 22.042969 55.378906 22.128906 C 55.066406 22.191406 54.707031 22.085938 54.625 21.75 C 54.542969 21.390625 54.773438 21.054688 55.109375 20.988281 "/>
<path style=" stroke:none;fill-rule:nonzero;fill:rgb(100%,100%,100%);fill-opacity:1;" d="M 56.050781 24.089844 C 56.511719 25.226562 56.828125 26.535156 57.226562 27.757812 L 57.078125 27.839844 L 54.855469 27.796875 L 56.050781 24.089844 "/>
<path style=" stroke:none;fill-rule:nonzero;fill:rgb(0%,0%,0%);fill-opacity:1;" d="M 57.289062 20.988281 C 57.644531 20.90625 57.980469 21.160156 58.042969 21.476562 C 58.023438 21.726562 57.917969 22.023438 57.664062 22.128906 C 57.351562 22.171875 57.035156 22.109375 56.890625 21.8125 C 56.742188 21.476562 56.953125 21.09375 57.289062 20.988281 "/>
<path style=" stroke:none;fill-rule:nonzero;fill:rgb(0%,0%,0%);fill-opacity:1;" d="M 58.882812 22.382812 L 64.859375 22.421875 C 65.089844 22.863281 65.300781 23.371094 65.28125 23.855469 C 64.859375 23.667969 64.710938 22.992188 64.1875 22.84375 C 63.601562 22.800781 62.574219 22.464844 62.257812 23.140625 L 62.152344 30.894531 C 62.238281 31.316406 63.203125 31.042969 62.824219 31.464844 L 60.539062 31.464844 L 60.390625 31.316406 C 60.601562 31.023438 61.148438 31.316406 61.253906 30.832031 L 61.398438 23.179688 C 61.378906 22.90625 61.085938 22.71875 60.832031 22.695312 C 60.183594 22.675781 59.574219 22.71875 59.070312 23.035156 C 58.777344 23.265625 58.695312 23.835938 58.316406 23.75 C 58.359375 23.246094 58.546875 22.738281 58.882812 22.382812 "/>
<path style=" stroke:none;fill-rule:nonzero;fill:rgb(0%,0%,0%);fill-opacity:1;" d="M 101.003906 23.285156 C 102.117188 22.277344 103.898438 22.105469 105.328125 22.570312 C 106.4375 22.90625 107.359375 24.046875 107.675781 25.144531 C 108.09375 26.703125 108.011719 28.660156 107.109375 29.992188 C 106.207031 31.253906 104.800781 31.78125 103.230469 31.65625 C 101.824219 31.613281 100.480469 30.625 99.914062 29.316406 C 99.265625 27.355469 99.367188 24.761719 101.003906 23.285156 "/>
<path style=" stroke:none;fill-rule:nonzero;fill:rgb(100%,100%,100%);fill-opacity:1;" d="M 102.242188 23.140625 C 102.871094 22.675781 103.792969 22.632812 104.550781 22.800781 C 105.957031 23.117188 106.707031 24.636719 106.878906 25.941406 C 107.085938 27.609375 106.835938 29.210938 105.785156 30.414062 C 105.050781 31.234375 103.921875 31.421875 102.851562 31.171875 C 101.800781 30.894531 101.152344 29.820312 100.773438 28.894531 C 100.269531 26.851562 100.480469 24.445312 102.242188 23.140625 "/>
<path style=" stroke:none;fill-rule:nonzero;fill:rgb(0%,0%,0%);fill-opacity:1;" d="M 108.011719 29.757812 C 108.40625 29.90625 108.660156 30.433594 109.015625 30.707031 C 109.667969 31.234375 110.675781 31.464844 111.46875 31.085938 C 112.039062 30.75 112.394531 30.179688 112.457031 29.546875 C 112.351562 27.144531 109.476562 26.957031 108.492188 25.078125 C 108.28125 24.550781 108.28125 23.917969 108.492188 23.371094 C 108.910156 22.546875 109.8125 22.234375 110.714844 22.277344 C 111.34375 22.234375 111.933594 22.800781 112.519531 22.316406 L 112.644531 22.316406 C 112.789062 22.863281 112.960938 23.457031 112.9375 23.984375 C 112.519531 23.855469 112.433594 23.351562 112.039062 23.097656 C 111.386719 22.613281 110.441406 22.488281 109.710938 22.886719 C 109.3125 23.203125 109.164062 23.601562 109.101562 24.046875 C 109.582031 26.113281 112.097656 26.195312 113.023438 28.09375 C 113.460938 28.851562 113.273438 29.949219 112.832031 30.644531 C 112.097656 31.65625 110.863281 31.71875 109.769531 31.550781 C 109.351562 31.59375 108.804688 30.980469 108.535156 31.613281 L 108.347656 31.613281 C 108.136719 31.023438 108.03125 30.347656 108.011719 29.757812 "/>
<path style=" stroke:none;fill-rule:nonzero;fill:rgb(0%,0%,0%);fill-opacity:1;" d="M 114.929688 22.382812 C 116.691406 24.617188 118.121094 27.125 119.902344 29.359375 C 120.046875 27.25 120.007812 24.933594 119.941406 22.84375 C 119.835938 22.488281 118.976562 22.800781 119.378906 22.382812 C 119.984375 22.382812 120.636719 22.339844 121.222656 22.421875 C 121.117188 22.757812 120.507812 22.507812 120.46875 22.992188 L 120.363281 31.507812 C 119.878906 31.761719 120.007812 31.171875 119.835938 30.9375 C 118.242188 28.640625 116.691406 26.257812 115.015625 24.046875 C 114.867188 26.195312 114.910156 28.789062 114.972656 31.023438 C 115.140625 31.296875 115.582031 31.066406 115.644531 31.421875 C 115.058594 31.550781 114.238281 31.550781 113.695312 31.421875 C 113.757812 31.085938 114.40625 31.316406 114.449219 30.832031 L 114.488281 23.222656 C 114.238281 22.90625 114.007812 22.613281 113.609375 22.570312 L 113.609375 22.421875 L 114.929688 22.382812 "/>
<path style=" stroke:none;fill-rule:nonzero;fill:rgb(0%,0%,0%);fill-opacity:1;" d="M 121.261719 31.210938 L 121.597656 30.789062 L 124.347656 22.464844 L 124.492188 22.382812 L 124.722656 22.65625 L 127.324219 31.085938 C 127.449219 31.402344 128.265625 31.210938 127.847656 31.613281 C 127.074219 31.570312 126.234375 31.675781 125.519531 31.507812 C 125.605469 31.148438 126.171875 31.445312 126.273438 31.085938 C 126.214844 30.179688 125.917969 29.378906 125.625 28.554688 C 124.910156 28.050781 123.824219 28.324219 122.960938 28.324219 C 122.355469 29.082031 122.226562 30.136719 121.976562 31.085938 C 122.0625 31.445312 122.730469 31.105469 122.585938 31.550781 L 120.84375 31.507812 C 120.738281 31.148438 121.160156 31.421875 121.261719 31.210938 "/>
<path style=" stroke:none;fill-rule:nonzero;fill:rgb(100%,100%,100%);fill-opacity:1;" d="M 124.199219 24.128906 C 124.640625 25.351562 125.039062 26.617188 125.332031 27.882812 L 122.960938 27.839844 C 123.359375 26.597656 123.757812 25.308594 124.199219 24.128906 "/>
<path style=" stroke:none;fill-rule:nonzero;fill:rgb(0%,0%,0%);fill-opacity:1;" d="M 132.863281 22.464844 C 133.617188 22.632812 134.015625 23.457031 134.140625 24.128906 C 134.183594 25.015625 133.804688 25.835938 133.007812 26.21875 C 132.839844 26.300781 132.671875 26.34375 132.527344 26.46875 C 133.21875 26.640625 133.933594 26.890625 134.328125 27.566406 C 134.792969 28.367188 134.707031 29.652344 134.183594 30.414062 C 133.070312 31.886719 130.929688 31.804688 129.316406 31.421875 C 129.023438 31.359375 128.730469 31.171875 128.5625 30.9375 C 128.6875 30.75 129.085938 30.730469 129.128906 30.414062 L 128.980469 23.519531 L 128.5 23.222656 C 129.589844 22.253906 131.394531 22.085938 132.863281 22.464844 "/>
<path style=" stroke:none;fill-rule:nonzero;fill:rgb(100%,100%,100%);fill-opacity:1;" d="M 129.925781 23.285156 C 130.199219 22.78125 130.785156 22.652344 131.351562 22.652344 C 131.835938 22.675781 132.292969 22.757812 132.671875 23.035156 C 133.429688 23.644531 133.257812 24.679688 133.007812 25.457031 C 132.503906 26.28125 131.542969 26.34375 130.636719 26.429688 C 130.40625 26.554688 130.660156 26.746094 130.785156 26.808594 C 131.769531 26.746094 132.820312 26.765625 133.34375 27.652344 C 133.804688 28.535156 133.722656 29.886719 133.050781 30.644531 C 132.398438 31.316406 131.226562 31.339844 130.40625 31.023438 L 130.03125 30.601562 C 129.988281 28.21875 129.882812 25.753906 129.925781 23.285156 "/>
<path style=" stroke:none;fill-rule:nonzero;fill:rgb(0%,0%,0%);fill-opacity:1;" d="M 135.945312 30.894531 L 136.027344 23.601562 C 136.027344 23.265625 135.609375 23.433594 135.523438 23.179688 C 136.300781 22.359375 137.601562 22.234375 138.773438 22.316406 C 139.613281 22.296875 140.347656 22.632812 140.871094 23.328125 C 141.207031 23.878906 141.355469 24.617188 141.144531 25.269531 C 140.957031 26.21875 139.929688 26.808594 139.066406 26.933594 C 138.964844 26.957031 138.839844 26.914062 138.773438 27.039062 L 141.710938 31.128906 C 141.921875 31.359375 142.382812 31.128906 142.421875 31.507812 C 141.898438 31.507812 141.292969 31.71875 140.871094 31.507812 L 137.644531 26.890625 C 137.789062 26.429688 138.566406 26.808594 138.921875 26.554688 C 139.382812 26.386719 139.90625 26.046875 140.097656 25.5625 C 140.429688 24.828125 140.390625 23.773438 139.78125 23.179688 C 139.238281 22.570312 138.292969 22.59375 137.558594 22.757812 C 137.347656 22.863281 137.097656 22.992188 136.992188 23.222656 C 136.886719 25.730469 136.78125 28.429688 136.886719 31.023438 C 137.011719 31.402344 137.914062 31.066406 137.558594 31.507812 C 136.761719 31.488281 135.921875 31.59375 135.1875 31.421875 C 135.273438 31.023438 135.921875 31.421875 135.945312 30.894531 "/>
<path style=" stroke:none;fill-rule:nonzero;fill:rgb(0%,0%,0%);fill-opacity:1;" d="M 141.941406 22.421875 L 144.230469 22.464844 C 144.058594 22.757812 143.453125 22.632812 143.410156 23.140625 L 143.472656 29.886719 C 143.601562 30.433594 144.082031 30.855469 144.5625 31.128906 C 145.339844 31.488281 146.347656 31.277344 147.058594 30.9375 C 147.5625 30.582031 147.917969 30.097656 147.960938 29.503906 C 147.960938 27.25 148.171875 25.121094 147.960938 22.886719 C 147.855469 22.59375 147.3125 22.800781 147.3125 22.464844 C 147.960938 22.464844 148.652344 22.253906 149.28125 22.464844 C 149.242188 22.863281 148.613281 22.488281 148.527344 22.992188 L 148.382812 29.652344 C 148.320312 30.328125 147.835938 30.894531 147.25 31.277344 C 146.03125 31.824219 144.230469 31.929688 143.179688 30.894531 C 142.675781 30.476562 142.59375 29.863281 142.53125 29.273438 L 142.53125 22.886719 C 142.425781 22.527344 141.523438 22.863281 141.941406 22.421875 "/>
<path style=" stroke:none;fill-rule:nonzero;fill:rgb(0%,0%,0%);fill-opacity:1;" d="M 144.375 20.84375 C 144.625 20.882812 144.960938 20.90625 145.027344 21.242188 C 145.109375 21.539062 144.941406 21.9375 144.605469 22.042969 C 144.3125 22.023438 143.976562 21.9375 143.890625 21.621094 C 143.808594 21.265625 144.039062 20.90625 144.375 20.84375 "/>
<path style=" stroke:none;fill-rule:nonzero;fill:rgb(0%,0%,0%);fill-opacity:1;" d="M 146.597656 20.84375 C 146.914062 20.757812 147.207031 20.96875 147.3125 21.242188 C 147.332031 21.558594 147.269531 21.855469 146.976562 22.003906 C 146.703125 22.023438 146.242188 22.003906 146.15625 21.621094 C 146.050781 21.265625 146.304688 20.96875 146.597656 20.84375 "/>
<path style=" stroke:none;fill-rule:nonzero;fill:rgb(0%,0%,0%);fill-opacity:1;" d="M 151.988281 22.464844 C 152.867188 22.191406 153.9375 22.148438 154.777344 22.507812 C 155.007812 22.59375 155.132812 22.359375 155.300781 22.277344 C 155.65625 22.675781 155.785156 23.328125 155.910156 23.898438 C 155.449219 24.234375 155.425781 23.433594 155.070312 23.328125 C 154.398438 22.65625 153.328125 22.402344 152.46875 22.800781 C 150.730469 23.6875 150.519531 25.605469 150.4375 27.378906 C 150.5625 28.703125 150.855469 30.03125 152.03125 30.835938 C 152.660156 31.128906 153.457031 31.277344 154.167969 31.085938 C 154.839844 30.917969 155.34375 30.285156 155.867188 29.84375 C 156.203125 30.011719 155.84375 30.222656 155.824219 30.414062 C 154.859375 31.527344 153.328125 31.867188 151.945312 31.421875 C 150.203125 30.789062 149.574219 28.976562 149.429688 27.3125 C 149.429688 25.355469 150.058594 23.308594 151.988281 22.464844 "/>
<path style=" stroke:none;fill-rule:nonzero;fill:rgb(0%,0%,0%);fill-opacity:1;" d="M 157.105469 30.894531 C 157.1875 28.261719 157.125 25.4375 157.148438 22.886719 C 156.957031 22.675781 156.6875 22.65625 156.433594 22.613281 L 156.433594 22.421875 C 157.1875 22.359375 158.050781 22.359375 158.804688 22.421875 C 158.785156 22.886719 158.132812 22.464844 158.050781 22.992188 C 157.984375 24.128906 157.984375 25.375 158.050781 26.511719 L 161.257812 23.035156 C 161.40625 22.550781 160.753906 22.738281 160.753906 22.421875 C 161.40625 22.359375 162.160156 22.359375 162.828125 22.421875 C 162.769531 22.800781 162.242188 22.632812 162.011719 22.886719 L 158.949219 26.132812 L 158.949219 26.28125 L 162.789062 30.9375 C 162.976562 31.277344 163.4375 31.171875 163.585938 31.464844 C 163.164062 31.613281 162.597656 31.570312 162.160156 31.507812 C 160.671875 29.863281 159.472656 28.15625 158.050781 26.511719 C 157.878906 27.96875 157.945312 29.546875 158.007812 31.023438 C 158.152344 31.382812 158.71875 31 158.699219 31.464844 L 156.289062 31.464844 C 156.328125 30.980469 157.023438 31.445312 157.105469 30.894531 "/>
</g>
<pattern id="pattern0" patternUnits="userSpaceOnUse" width="164" height="43" patternTransform="matrix(0.997765,0,0,0.992721,0.49707,42.519531)">
<use xlink:href="#surface6"/>
</pattern>
</defs>
<g id="surface1">
<g clip-path="url(#clip1)" clip-rule="nonzero">
<path style=" stroke:none;fill-rule:nonzero;fill:url(#pattern0);" d="M 0.496094 42.25 L 163.878906 42.25 L 163.878906 0 L 0.496094 0 Z M 0.496094 42.25 "/>
</g>
</g>
</svg>
